<?xml version="1.0" standalone="no"?>
<!DOCTYPE svg PUBLIC "-//W3C//DTD SVG 20010904//EN"
 "http://www.w3.org/TR/2001/REC-SVG-20010904/DTD/svg10.dtd">
<svg version="1.0" xmlns="http://www.w3.org/2000/svg"
 width="1640.000000pt" height="924.000000pt" viewBox="0 0 1640.000000 924.000000"
 preserveAspectRatio="xMidYMid meet">

<g transform="translate(0.000000,924.000000) scale(0.100000,-0.100000)"
fill="#000000" stroke="none">
<path d="M7940 8595 c-124 -46 -700 -258 -1280 -470 -580 -213 -1063 -394
-1072 -402 -17 -15 -18 -93 -20 -1302 l-3 -1285 -70 -27 c-38 -15 -608 -223
-1265 -464 -657 -241 -1203 -445 -1213 -455 -17 -15 -17 -85 -17 -1330 0
-1257 1 -1315 18 -1333 26 -25 2568 -961 2612 -961 21 0 455 155 1115 398 594
219 1165 429 1268 467 l189 69 1266 -466 c697 -256 1276 -468 1288 -471 17 -4
1020 360 2523 914 92 34 105 42 117 70 12 27 14 260 14 1322 l0 1290 -22 25
c-13 14 -41 31 -63 39 -22 7 -590 215 -1262 462 l-1223 448 0 1273 c0 941 -3
1280 -12 1298 -7 18 -29 32 -67 47 -31 11 -490 180 -1021 374 -531 194 -1089
399 -1240 454 -151 56 -288 101 -305 100 -16 -1 -131 -39 -255 -84z m-1039
-1465 c646 -237 1186 -435 1202 -441 l27 -11 0 -1199 c0 -953 -3 -1199 -12
-1199 -7 0 -551 198 -1208 438 l-1195 438 -3 1202 c-1 685 2 1202 7 1202 5 0
537 -194 1182 -430z m3787 -772 l-3 -1202 -75 -28 c-41 -15 -574 -210 -1185
-434 -610 -224 -1118 -409 -1128 -411 -16 -5 -17 55 -15 1197 l3 1203 565 208
c311 114 571 208 578 208 9 1 12 -51 12 -229 0 -223 1 -230 22 -250 12 -11 34
-20 48 -20 14 0 36 9 48 20 22 20 22 26 22 279 l0 259 193 71 c105 39 350 129
542 200 193 71 356 130 363 130 10 1 12 -242 10 -1201z m-6427 -2733 c607
-223 1148 -422 1202 -442 l97 -35 0 -1200 0 -1201 -27 6 c-16 4 -559 201
-1208 440 l-1180 433 -3 1202 c-1 661 2 1202 6 1202 5 0 505 -182 1113 -405z
m3857 -797 l-3 -1203 -115 -42 c-1259 -461 -2277 -836 -2283 -840 -4 -2 -6
539 -5 1203 l3 1206 565 208 565 207 5 -244 c5 -227 6 -246 24 -259 28 -20 80
-18 99 4 14 16 17 54 19 286 l3 268 550 203 c303 112 556 204 563 204 10 1 12
-242 10 -1201z m1338 777 c638 -234 1178 -433 1202 -442 l42 -16 0 -1198 c0
-953 -3 -1199 -12 -1199 -7 0 -215 74 -463 165 -247 91 -785 288 -1195 438
l-745 273 -3 1202 c-1 697 2 1202 7 1202 5 0 530 -191 1167 -425z m3802 -777
l-3 -1203 -155 -57 c-85 -31 -623 -229 -1195 -438 -572 -210 -1043 -384 -1048
-387 -4 -2 -6 539 -5 1202 l3 1207 570 209 c313 115 573 209 577 209 4 0 8
-90 8 -200 0 -192 1 -200 22 -220 12 -11 34 -20 48 -20 14 0 36 9 48 20 21 20
22 27 22 249 l0 228 543 200 c298 111 548 201 555 202 10 1 12 -242 10 -1201z"/>
<path d="M7361 5274 c-20 -26 -21 -39 -21 -310 0 -280 0 -283 23 -307 25 -27
533 -217 580 -217 15 0 36 9 47 20 19 19 20 33 20 313 0 276 -1 295 -19 311
-25 22 -547 216 -582 216 -18 0 -35 -9 -48 -26z"/>
<path d="M10300 5716 c-230 -85 -277 -105 -287 -126 -9 -18 -13 -98 -13 -295
0 -291 3 -309 52 -333 25 -12 50 -4 305 89 153 56 287 110 298 121 19 17 20
34 23 281 2 144 0 277 -3 295 -8 43 -38 72 -72 71 -16 -1 -152 -47 -303 -103z"/>
<path d="M4834 1739 c-18 -20 -19 -42 -22 -303 -2 -213 1 -287 11 -306 10 -21
58 -41 292 -127 154 -57 292 -103 306 -103 14 0 34 9 45 21 18 19 19 42 22
288 2 146 1 281 -3 299 -3 17 -16 39 -28 47 -37 24 -544 205 -575 205 -17 0
-37 -9 -48 -21z"/>
<path d="M7825 2219 c-360 -132 -372 -137 -384 -168 -8 -19 -11 -112 -9 -304
3 -268 4 -277 25 -298 11 -12 33 -22 48 -21 37 0 556 191 580 214 19 17 20 34
23 281 2 144 0 277 -3 295 -8 41 -37 72 -67 71 -13 0 -108 -32 -213 -70z"/>
<path d="M9987 1742 c-15 -16 -17 -53 -17 -313 0 -221 3 -299 13 -311 6 -9
125 -57 262 -107 138 -50 260 -96 273 -101 42 -18 79 -12 101 16 20 26 21 39
21 309 0 255 -2 285 -17 304 -18 22 -62 40 -382 157 -184 68 -228 75 -254 46z"/>
<path d="M12965 2219 c-370 -136 -372 -136 -384 -171 -7 -19 -11 -130 -11
-292 0 -281 3 -300 52 -324 24 -11 51 -3 305 89 153 56 287 110 298 120 19 18
20 35 23 282 2 144 0 277 -3 295 -8 41 -37 72 -67 71 -13 0 -108 -32 -213 -70z"/>
</g>
</svg>
